<svg id="visual" viewBox="0 0 900 100" width="900" height="100" xmlns="http://www.w3.org/2000/svg" xmlns:xlink="http://www.w3.org/1999/xlink" version="1.1"><path d="M0 46L41 20L82 15L123 16L164 24L205 18L245 19L286 36L327 13L368 19L409 43L450 43L491 42L532 46L573 33L614 49L655 29L695 41L736 52L777 46L818 52L859 27L900 17L900 101L859 101L818 101L777 101L736 101L695 101L655 101L614 101L573 101L532 101L491 101L450 101L409 101L368 101L327 101L286 101L245 101L205 101L164 101L123 101L82 101L41 101L0 101Z" fill="#1e40af"></path><path d="M0 29L41 52L82 57L123 45L164 40L205 39L245 42L286 55L327 63L368 29L409 52L450 26L491 35L532 38L573 41L614 57L655 52L695 34L736 27L777 61L818 37L859 46L900 40L900 101L859 101L818 101L777 101L736 101L695 101L655 101L614 101L573 101L532 101L491 101L450 101L409 101L368 101L327 101L286 101L245 101L205 101L164 101L123 101L82 101L41 101L0 101Z" fill="#0054a3"></path><path d="M0 65L41 61L82 55L123 65L164 45L205 72L245 72L286 41L327 52L368 44L409 48L450 48L491 63L532 40L573 60L614 61L655 60L695 62L736 51L777 63L818 50L859 48L900 65L900 101L859 101L818 101L777 101L736 101L695 101L655 101L614 101L573 101L532 101L491 101L450 101L409 101L368 101L327 101L286 101L245 101L205 101L164 101L123 101L82 101L41 101L0 101Z" fill="#005f8d"></path><path d="M0 63L41 55L82 69L123 64L164 56L205 64L245 65L286 56L327 75L368 67L409 67L450 70L491 55L532 67L573 80L614 65L655 61L695 73L736 71L777 73L818 76L859 56L900 67L900 101L859 101L818 101L777 101L736 101L695 101L655 101L614 101L573 101L532 101L491 101L450 101L409 101L368 101L327 101L286 101L245 101L205 101L164 101L123 101L82 101L41 101L0 101Z" fill="#006371"></path><path d="M0 71L41 91L82 77L123 85L164 75L205 93L245 93L286 73L327 77L368 71L409 87L450 94L491 80L532 72L573 80L614 85L655 88L695 79L736 93L777 72L818 72L859 73L900 85L900 101L859 101L818 101L777 101L736 101L695 101L655 101L614 101L573 101L532 101L491 101L450 101L409 101L368 101L327 101L286 101L245 101L205 101L164 101L123 101L82 101L41 101L0 101Z" fill="#065f46"></path></svg>