<svg id="visual" viewBox="0 0 900 100" width="900" height="100" xmlns="http://www.w3.org/2000/svg" xmlns:xlink="http://www.w3.org/1999/xlink" version="1.1"><path d="M0 11L64 13L129 8L193 5L257 4L321 20L386 0L450 17L514 22L579 27L643 12L707 33L771 22L836 10L900 7L900 101L836 101L771 101L707 101L643 101L579 101L514 101L450 101L386 101L321 101L257 101L193 101L129 101L64 101L0 101Z" fill="#1e40af"></path><path d="M0 25L64 15L129 29L193 32L257 38L321 27L386 28L450 19L514 18L579 35L643 18L707 33L771 11L836 33L900 29L900 101L836 101L771 101L707 101L643 101L579 101L514 101L450 101L386 101L321 101L257 101L193 101L129 101L64 101L0 101Z" fill="#68309c"></path><path d="M0 32L64 28L129 46L193 49L257 21L321 30L386 27L450 48L514 41L579 51L643 34L707 25L771 34L836 32L900 48L900 101L836 101L771 101L707 101L643 101L579 101L514 101L450 101L386 101L321 101L257 101L193 101L129 101L64 101L0 101Z" fill="#891b83"></path><path d="M0 33L64 55L129 52L193 55L257 43L321 39L386 33L450 33L514 63L579 59L643 37L707 51L771 58L836 44L900 56L900 101L836 101L771 101L707 101L643 101L579 101L514 101L450 101L386 101L321 101L257 101L193 101L129 101L64 101L0 101Z" fill="#9c0469"></path><path d="M0 47L64 49L129 64L193 53L257 62L321 63L386 54L450 54L514 61L579 50L643 62L707 57L771 63L836 45L900 65L900 101L836 101L771 101L707 101L643 101L579 101L514 101L450 101L386 101L321 101L257 101L193 101L129 101L64 101L0 101Z" fill="#a4044f"></path><path d="M0 59L64 57L129 57L193 70L257 78L321 59L386 77L450 72L514 69L579 59L643 75L707 79L771 65L836 70L900 62L900 101L836 101L771 101L707 101L643 101L579 101L514 101L450 101L386 101L321 101L257 101L193 101L129 101L64 101L0 101Z" fill="#a41b38"></path><path d="M0 67L64 90L129 78L193 79L257 90L321 89L386 78L450 82L514 75L579 69L643 87L707 88L771 79L836 72L900 80L900 101L836 101L771 101L707 101L643 101L579 101L514 101L450 101L386 101L321 101L257 101L193 101L129 101L64 101L0 101Z" fill="#9d2f22"></path><path d="M0 84L64 91L129 83L193 90L257 80L321 78L386 79L450 85L514 89L579 83L643 84L707 96L771 90L836 82L900 85L900 101L836 101L771 101L707 101L643 101L579 101L514 101L450 101L386 101L321 101L257 101L193 101L129 101L64 101L0 101Z" fill="#92400e"></path></svg>