<svg id="visual" viewBox="0 0 900 100" width="900" height="100" xmlns="http://www.w3.org/2000/svg" xmlns:xlink="http://www.w3.org/1999/xlink" version="1.1"><path d="M0 54L50 34L100 45L150 11L200 42L250 52L300 26L350 10L400 18L450 23L500 52L550 23L600 27L650 47L700 38L750 23L800 24L850 45L900 52L900 101L850 101L800 101L750 101L700 101L650 101L600 101L550 101L500 101L450 101L400 101L350 101L300 101L250 101L200 101L150 101L100 101L50 101L0 101Z" fill="#1e40af"></path><path d="M0 52L50 25L100 53L150 31L200 35L250 46L300 39L350 33L400 34L450 27L500 48L550 59L600 61L650 39L700 63L750 59L800 38L850 45L900 52L900 101L850 101L800 101L750 101L700 101L650 101L600 101L550 101L500 101L450 101L400 101L350 101L300 101L250 101L200 101L150 101L100 101L50 101L0 101Z" fill="#112f99"></path><path d="M0 45L50 42L100 46L150 58L200 41L250 46L300 57L350 52L400 43L450 72L500 62L550 64L600 73L650 54L700 64L750 43L800 69L850 41L900 46L900 101L850 101L800 101L750 101L700 101L650 101L600 101L550 101L500 101L450 101L400 101L350 101L300 101L250 101L200 101L150 101L100 101L50 101L0 101Z" fill="#001e84"></path><path d="M0 74L50 78L100 76L150 75L200 70L250 56L300 66L350 57L400 68L450 80L500 76L550 56L600 79L650 62L700 57L750 73L800 63L850 61L900 70L900 101L850 101L800 101L750 101L700 101L650 101L600 101L550 101L500 101L450 101L400 101L350 101L300 101L250 101L200 101L150 101L100 101L50 101L0 101Z" fill="#000c6c"></path><path d="M0 73L50 93L100 83L150 84L200 76L250 71L300 86L350 85L400 91L450 89L500 82L550 88L600 79L650 81L700 76L750 93L800 75L850 72L900 71L900 101L850 101L800 101L750 101L700 101L650 101L600 101L550 101L500 101L450 101L400 101L350 101L300 101L250 101L200 101L150 101L100 101L50 101L0 101Z" fill="#000000"></path></svg>