<svg id="visual" viewBox="0 0 900 600" width="900" height="600" xmlns="http://www.w3.org/2000/svg" xmlns:xlink="http://www.w3.org/1999/xlink" version="1.1"><g stroke-width="1" stroke-linejoin="bevel"><path d="M420 275L478.3 250L415.7 268Z" fill="#003a80" stroke="#003a80"></path><path d="M420 275L480.3 265L478.3 250Z" fill="#083568" stroke="#083568"></path><path d="M478.3 250L466.3 199L415.7 268Z" fill="#003c8c" stroke="#003c8c"></path><path d="M364.7 316L408.7 330L420 275Z" fill="#17304f" stroke="#17304f"></path><path d="M420 275L421 336L480.3 265Z" fill="#0e3fa4" stroke="#0e3fa4"></path><path d="M408.7 330L421 336L420 275Z" fill="#003874" stroke="#003874"></path><path d="M466.3 199L409.7 153L415.7 268Z" fill="#1e40af" stroke="#1e40af"></path><path d="M480.3 265L524.6 192L478.3 250Z" fill="#1e40af" stroke="#1e40af"></path><path d="M478.3 250L524.6 192L466.3 199Z" fill="#1c2c43" stroke="#1c2c43"></path><path d="M466.3 199L491 127L439 159Z" fill="#003c8c" stroke="#003c8c"></path><path d="M320.4 221L364.7 316L415.7 268Z" fill="#17304f" stroke="#17304f"></path><path d="M415.7 268L364.7 316L420 275Z" fill="#17304f" stroke="#17304f"></path><path d="M408.7 330L427 404L421 336Z" fill="#1f2937" stroke="#1f2937"></path><path d="M439 159L409.7 153L466.3 199Z" fill="#0e3fa4" stroke="#0e3fa4"></path><path d="M409.7 153L320.4 221L415.7 268Z" fill="#003c8c" stroke="#003c8c"></path><path d="M427 404L488.3 380L421 336Z" fill="#0e3fa4" stroke="#0e3fa4"></path><path d="M421 336L488.3 380L480.3 265Z" fill="#003c8c" stroke="#003c8c"></path><path d="M588.6 205L573.3 176L524.6 192Z" fill="#1e40af" stroke="#1e40af"></path><path d="M524.6 192L491 127L466.3 199Z" fill="#003c8c" stroke="#003c8c"></path><path d="M439 159L436 112L409.7 153Z" fill="#0e3fa4" stroke="#0e3fa4"></path><path d="M488.3 380L511.3 378L480.3 265Z" fill="#083568" stroke="#083568"></path><path d="M491 127L436 112L439 159Z" fill="#11335b" stroke="#11335b"></path><path d="M409.7 153L343.7 138L320.4 221Z" fill="#003e98" stroke="#003e98"></path><path d="M511.3 378L528.6 373L480.3 265Z" fill="#1c2c43" stroke="#1c2c43"></path><path d="M320.4 221L313.4 317L364.7 316Z" fill="#17304f" stroke="#17304f"></path><path d="M364.7 316L427 404L408.7 330Z" fill="#11335b" stroke="#11335b"></path><path d="M588.6 205L524.6 192L480.3 265Z" fill="#1c2c43" stroke="#1c2c43"></path><path d="M524.6 192L573.3 176L491 127Z" fill="#17304f" stroke="#17304f"></path><path d="M332.4 454L427 404L364.7 316Z" fill="#003a80" stroke="#003a80"></path><path d="M485 478L538.6 383L511.3 378Z" fill="#1e40af" stroke="#1e40af"></path><path d="M511.3 378L538.6 383L528.6 373Z" fill="#1f2937" stroke="#1f2937"></path><path d="M627.6 262L588.6 205L480.3 265Z" fill="#17304f" stroke="#17304f"></path><path d="M377.4 89L343.7 138L409.7 153Z" fill="#1c2c43" stroke="#1c2c43"></path><path d="M485 478L511.3 378L488.3 380Z" fill="#17304f" stroke="#17304f"></path><path d="M627.6 262L621.9 216L588.6 205Z" fill="#0e3fa4" stroke="#0e3fa4"></path><path d="M588.6 205L580.6 170L573.3 176Z" fill="#003e98" stroke="#003e98"></path><path d="M573.3 176L580.6 170L491 127Z" fill="#11335b" stroke="#11335b"></path><path d="M260.1 257L274.1 290L320.4 221Z" fill="#003e98" stroke="#003e98"></path><path d="M320.4 221L274.1 290L313.4 317Z" fill="#17304f" stroke="#17304f"></path><path d="M332.4 454L421.7 433L427 404Z" fill="#003e98" stroke="#003e98"></path><path d="M433.7 42L377.4 89L436 112Z" fill="#003a80" stroke="#003a80"></path><path d="M436 112L377.4 89L409.7 153Z" fill="#11335b" stroke="#11335b"></path><path d="M410 473L421.7 433L332.4 454Z" fill="#003e98" stroke="#003e98"></path><path d="M427 404L421.7 433L488.3 380Z" fill="#003a80" stroke="#003a80"></path><path d="M627.6 262L480.3 265L627.9 327Z" fill="#003a80" stroke="#003a80"></path><path d="M588.6 205L621.9 216L580.6 170Z" fill="#1e40af" stroke="#1e40af"></path><path d="M627.9 327L480.3 265L528.6 373Z" fill="#0e3fa4" stroke="#0e3fa4"></path><path d="M287.4 147L260.1 257L320.4 221Z" fill="#1f2937" stroke="#1f2937"></path><path d="M287.4 147L320.4 221L343.7 138Z" fill="#17304f" stroke="#17304f"></path><path d="M331.4 23L287.4 147L343.7 138Z" fill="#1c2c43" stroke="#1c2c43"></path><path d="M538.6 383L627.9 327L528.6 373Z" fill="#11335b" stroke="#11335b"></path><path d="M627.9 327L648.1 265L627.6 262Z" fill="#083568" stroke="#083568"></path><path d="M627.6 262L648.1 265L621.9 216Z" fill="#1c2c43" stroke="#1c2c43"></path><path d="M492.3 24L433.7 42L491 127Z" fill="#003e98" stroke="#003e98"></path><path d="M491 127L433.7 42L436 112Z" fill="#17304f" stroke="#17304f"></path><path d="M331.4 23L232.9 111L287.4 147Z" fill="#003874" stroke="#003874"></path><path d="M538.6 383L629.9 374L627.9 327Z" fill="#003e98" stroke="#003e98"></path><path d="M627.9 327L685.9 276L648.1 265Z" fill="#0e3fa4" stroke="#0e3fa4"></path><path d="M631.9 398L629.9 374L538.6 383Z" fill="#003e98" stroke="#003e98"></path><path d="M332.4 454L364.7 316L313.4 317Z" fill="#1f2937" stroke="#1f2937"></path><path d="M421.7 433L485 478L488.3 380Z" fill="#1f2937" stroke="#1f2937"></path><path d="M260.1 257L227.9 297L274.1 290Z" fill="#11335b" stroke="#11335b"></path><path d="M274.1 290L261.4 382L313.4 317Z" fill="#083568" stroke="#083568"></path><path d="M178.6 297L227.9 297L153.6 245Z" fill="#0e3fa4" stroke="#0e3fa4"></path><path d="M410 473L426.7 477L421.7 433Z" fill="#083568" stroke="#083568"></path><path d="M228.1 316L261.4 382L274.1 290Z" fill="#003e98" stroke="#003e98"></path><path d="M227.9 297L228.1 316L274.1 290Z" fill="#003e98" stroke="#003e98"></path><path d="M426.7 477L485 478L421.7 433Z" fill="#1f2937" stroke="#1f2937"></path><path d="M261.4 382L332.4 454L313.4 317Z" fill="#003a80" stroke="#003a80"></path><path d="M579.6 458L631.9 398L538.6 383Z" fill="#003e98" stroke="#003e98"></path><path d="M629.9 374L685.9 276L627.9 327Z" fill="#0e3fa4" stroke="#0e3fa4"></path><path d="M619.6 90L492.3 24L491 127Z" fill="#003874" stroke="#003874"></path><path d="M619.6 90L491 127L580.6 170Z" fill="#003c8c" stroke="#003c8c"></path><path d="M658.1 56L619.6 90L670.1 64Z" fill="#11335b" stroke="#11335b"></path><path d="M621.9 216L619.6 90L580.6 170Z" fill="#003a80" stroke="#003a80"></path><path d="M739.4 275L685.9 276L761.1 383Z" fill="#11335b" stroke="#11335b"></path><path d="M648.1 265L740.1 207L621.9 216Z" fill="#1e40af" stroke="#1e40af"></path><path d="M485 478L579.6 458L538.6 383Z" fill="#1c2c43" stroke="#1c2c43"></path><path d="M426.7 477L458.3 499L485 478Z" fill="#083568" stroke="#083568"></path><path d="M485 478L588.9 523L579.6 458Z" fill="#003a80" stroke="#003a80"></path><path d="M401.7 544L458.3 499L426.7 477Z" fill="#003c8c" stroke="#003c8c"></path><path d="M477.3 539L458.3 499L401.7 544Z" fill="#1e40af" stroke="#1e40af"></path><path d="M206.9 437L295.1 450L261.4 382Z" fill="#11335b" stroke="#11335b"></path><path d="M261.4 382L295.1 450L332.4 454Z" fill="#003874" stroke="#003874"></path><path d="M401.7 544L426.7 477L410 473Z" fill="#1f2937" stroke="#1f2937"></path><path d="M482 0L422.7 0L433.7 42Z" fill="#003a80" stroke="#003a80"></path><path d="M433.7 42L331.4 23L377.4 89Z" fill="#003a80" stroke="#003a80"></path><path d="M331.4 23L343.7 138L377.4 89Z" fill="#003874" stroke="#003874"></path><path d="M287.4 147L197.1 164L260.1 257Z" fill="#003a80" stroke="#003a80"></path><path d="M508.3 0L482 0L492.3 24Z" fill="#003a80" stroke="#003a80"></path><path d="M492.3 24L482 0L433.7 42Z" fill="#003c8c" stroke="#003c8c"></path><path d="M422.7 0L331.4 23L433.7 42Z" fill="#003874" stroke="#003874"></path><path d="M227.9 297L195.9 328L228.1 316Z" fill="#1c2c43" stroke="#1c2c43"></path><path d="M228.1 316L195.9 328L261.4 382Z" fill="#1f2937" stroke="#1f2937"></path><path d="M178.6 297L195.9 328L227.9 297Z" fill="#17304f" stroke="#17304f"></path><path d="M619.6 90L508.3 0L492.3 24Z" fill="#003874" stroke="#003874"></path><path d="M232.9 111L197.1 164L287.4 147Z" fill="#083568" stroke="#083568"></path><path d="M153.6 245L227.9 297L260.1 257Z" fill="#0e3fa4" stroke="#0e3fa4"></path><path d="M237.1 20L216.1 109L232.9 111Z" fill="#0e3fa4" stroke="#0e3fa4"></path><path d="M232.9 111L195.9 126L197.1 164Z" fill="#0e3fa4" stroke="#0e3fa4"></path><path d="M216.1 109L195.9 126L232.9 111Z" fill="#1c2c43" stroke="#1c2c43"></path><path d="M197.1 164L153.6 245L260.1 257Z" fill="#003a80" stroke="#003a80"></path><path d="M335.4 521L410 473L332.4 454Z" fill="#1e40af" stroke="#1e40af"></path><path d="M458.3 499L477.3 539L485 478Z" fill="#003874" stroke="#003874"></path><path d="M422.7 0L310.1 0L331.4 23Z" fill="#003874" stroke="#003874"></path><path d="M331.4 23L237.1 20L232.9 111Z" fill="#003874" stroke="#003874"></path><path d="M216.1 109L165.9 10L195.9 126Z" fill="#1e40af" stroke="#1e40af"></path><path d="M297.1 535L335.4 521L295.1 450Z" fill="#003c8c" stroke="#003c8c"></path><path d="M295.1 450L335.4 521L332.4 454Z" fill="#003e98" stroke="#003e98"></path><path d="M670.1 64L619.6 90L685.9 84Z" fill="#003a80" stroke="#003a80"></path><path d="M619.6 90L613.6 0L508.3 0Z" fill="#1e40af" stroke="#1e40af"></path><path d="M149.6 156L153.6 245L197.1 164Z" fill="#003c8c" stroke="#003c8c"></path><path d="M335.4 521L401.7 544L410 473Z" fill="#17304f" stroke="#17304f"></path><path d="M685.9 84L619.6 90L621.9 216Z" fill="#003874" stroke="#003874"></path><path d="M761.1 383L685.9 276L629.9 374Z" fill="#003e98" stroke="#003e98"></path><path d="M685.9 276L740.1 207L648.1 265Z" fill="#17304f" stroke="#17304f"></path><path d="M761.1 383L629.9 374L631.9 398Z" fill="#17304f" stroke="#17304f"></path><path d="M740.1 207L685.9 84L621.9 216Z" fill="#083568" stroke="#083568"></path><path d="M588.9 523L651.1 467L579.6 458Z" fill="#003874" stroke="#003874"></path><path d="M579.6 458L651.1 467L631.9 398Z" fill="#003e98" stroke="#003e98"></path><path d="M739.4 275L740.1 207L685.9 276Z" fill="#1c2c43" stroke="#1c2c43"></path><path d="M179.9 403L261.4 382L195.9 328Z" fill="#003c8c" stroke="#003c8c"></path><path d="M179.9 403L206.9 437L261.4 382Z" fill="#003c8c" stroke="#003c8c"></path><path d="M179.9 403L195.9 328L105.3 348Z" fill="#0e3fa4" stroke="#0e3fa4"></path><path d="M310.1 0L279.4 0L331.4 23Z" fill="#0e3fa4" stroke="#0e3fa4"></path><path d="M477.3 539L588.9 523L485 478Z" fill="#1e40af" stroke="#1e40af"></path><path d="M105.3 348L195.9 328L178.6 297Z" fill="#1e40af" stroke="#1e40af"></path><path d="M665.9 0L613.6 0L658.1 56Z" fill="#1e40af" stroke="#1e40af"></path><path d="M658.1 56L613.6 0L619.6 90Z" fill="#0e3fa4" stroke="#0e3fa4"></path><path d="M195.9 126L149.6 156L197.1 164Z" fill="#17304f" stroke="#17304f"></path><path d="M82.6 111L149.6 156L195.9 126Z" fill="#003a80" stroke="#003a80"></path><path d="M294.1 574L372.4 559L335.4 521Z" fill="#17304f" stroke="#17304f"></path><path d="M335.4 521L372.4 559L401.7 544Z" fill="#1c2c43" stroke="#1c2c43"></path><path d="M401.7 544L450 598L477.3 539Z" fill="#003c8c" stroke="#003c8c"></path><path d="M600.6 555L614.9 535L588.9 523Z" fill="#11335b" stroke="#11335b"></path><path d="M279.4 0L237.1 20L331.4 23Z" fill="#003c8c" stroke="#003c8c"></path><path d="M231.9 513L297.1 535L295.1 450Z" fill="#11335b" stroke="#11335b"></path><path d="M739.4 275L762.1 208L740.1 207Z" fill="#1c2c43" stroke="#1c2c43"></path><path d="M740.1 207L726.4 95L685.9 84Z" fill="#11335b" stroke="#11335b"></path><path d="M685.9 84L744.1 0L670.1 64Z" fill="#17304f" stroke="#17304f"></path><path d="M670.1 64L673.9 10L658.1 56Z" fill="#003874" stroke="#003874"></path><path d="M784.7 104L726.4 95L740.1 207Z" fill="#1e40af" stroke="#1e40af"></path><path d="M739.4 275L768.4 207L762.1 208Z" fill="#083568" stroke="#083568"></path><path d="M762.1 208L784.7 104L740.1 207Z" fill="#1c2c43" stroke="#1c2c43"></path><path d="M600.6 555L588.9 523L554.6 600Z" fill="#003e98" stroke="#003e98"></path><path d="M588.9 523L614.9 535L651.1 467Z" fill="#003a80" stroke="#003a80"></path><path d="M744.1 0L673.9 10L670.1 64Z" fill="#0e3fa4" stroke="#0e3fa4"></path><path d="M168.9 483L231.9 513L206.9 437Z" fill="#1f2937" stroke="#1f2937"></path><path d="M206.9 437L231.9 513L295.1 450Z" fill="#083568" stroke="#083568"></path><path d="M673.9 10L665.9 0L658.1 56Z" fill="#003c8c" stroke="#003c8c"></path><path d="M554.6 600L588.9 523L477.3 539Z" fill="#003874" stroke="#003874"></path><path d="M740.4 444L751.1 501L766.4 469Z" fill="#003c8c" stroke="#003c8c"></path><path d="M740.4 444L631.9 398L651.1 467Z" fill="#17304f" stroke="#17304f"></path><path d="M740.4 444L761.1 383L631.9 398Z" fill="#17304f" stroke="#17304f"></path><path d="M739.4 275L805.7 341L768.4 207Z" fill="#083568" stroke="#083568"></path><path d="M82.6 111L104.6 223L149.6 156Z" fill="#003874" stroke="#003874"></path><path d="M149.6 156L104.6 223L153.6 245Z" fill="#1e40af" stroke="#1e40af"></path><path d="M153.6 245L105.3 348L178.6 297Z" fill="#003874" stroke="#003874"></path><path d="M414 600L401.7 544L372.4 559Z" fill="#1e40af" stroke="#1e40af"></path><path d="M414 600L450 598L401.7 544Z" fill="#003c8c" stroke="#003c8c"></path><path d="M414 600L372.4 559L366.7 600Z" fill="#11335b" stroke="#11335b"></path><path d="M294.1 574L335.4 521L297.1 535Z" fill="#0e3fa4" stroke="#0e3fa4"></path><path d="M740.4 444L651.1 467L751.1 501Z" fill="#083568" stroke="#083568"></path><path d="M414 600L513.3 600L450 598Z" fill="#11335b" stroke="#11335b"></path><path d="M450 598L513.3 600L477.3 539Z" fill="#003a80" stroke="#003a80"></path><path d="M51.3 295L105.3 348L153.6 245Z" fill="#003c8c" stroke="#003c8c"></path><path d="M179.9 403L168.9 483L206.9 437Z" fill="#1c2c43" stroke="#1c2c43"></path><path d="M231.9 513L294.1 574L297.1 535Z" fill="#11335b" stroke="#11335b"></path><path d="M294.1 574L366.7 600L372.4 559Z" fill="#003a80" stroke="#003a80"></path><path d="M740.4 444L760.1 424L761.1 383Z" fill="#003a80" stroke="#003a80"></path><path d="M761.1 383L805.7 341L739.4 275Z" fill="#0e3fa4" stroke="#0e3fa4"></path><path d="M123.3 478L168.9 483L179.9 403Z" fill="#1e40af" stroke="#1e40af"></path><path d="M201.1 600L296.4 600L294.1 574Z" fill="#11335b" stroke="#11335b"></path><path d="M513.3 600L554.6 600L477.3 539Z" fill="#0e3fa4" stroke="#0e3fa4"></path><path d="M751.1 501L651.1 467L614.9 535Z" fill="#1f2937" stroke="#1f2937"></path><path d="M766.4 469L771.4 414L760.1 424Z" fill="#17304f" stroke="#17304f"></path><path d="M760.1 424L771.4 414L761.1 383Z" fill="#11335b" stroke="#11335b"></path><path d="M771.4 414L805.7 341L761.1 383Z" fill="#17304f" stroke="#17304f"></path><path d="M768.4 207L784.7 104L762.1 208Z" fill="#1f2937" stroke="#1f2937"></path><path d="M726.4 95L744.1 0L685.9 84Z" fill="#083568" stroke="#083568"></path><path d="M673.9 10L744.1 0L665.9 0Z" fill="#1c2c43" stroke="#1c2c43"></path><path d="M814.4 152L784.7 104L768.4 207Z" fill="#1c2c43" stroke="#1c2c43"></path><path d="M174.6 0L165.9 10L237.1 20Z" fill="#003a80" stroke="#003a80"></path><path d="M237.1 20L165.9 10L216.1 109Z" fill="#1e40af" stroke="#1e40af"></path><path d="M279.4 0L174.6 0L237.1 20Z" fill="#003e98" stroke="#003e98"></path><path d="M83.6 412L96.6 383L70.3 414Z" fill="#1f2937" stroke="#1f2937"></path><path d="M105.3 348L96.6 383L179.9 403Z" fill="#003a80" stroke="#003a80"></path><path d="M201.1 600L294.1 574L231.9 513Z" fill="#0e3fa4" stroke="#0e3fa4"></path><path d="M294.1 574L296.4 600L366.7 600Z" fill="#003e98" stroke="#003e98"></path><path d="M860.7 182L814.4 152L768.4 207Z" fill="#003c8c" stroke="#003c8c"></path><path d="M878.7 406L889.7 322L805.7 341Z" fill="#003c8c" stroke="#003c8c"></path><path d="M740.4 444L766.4 469L760.1 424Z" fill="#083568" stroke="#083568"></path><path d="M751.1 501L614.9 535L733.1 600Z" fill="#1e40af" stroke="#1e40af"></path><path d="M123.3 478L142.6 499L168.9 483Z" fill="#1f2937" stroke="#1f2937"></path><path d="M168.9 483L142.6 499L231.9 513Z" fill="#003a80" stroke="#003a80"></path><path d="M165.9 10L82.6 111L195.9 126Z" fill="#0e3fa4" stroke="#0e3fa4"></path><path d="M0 341L96.6 383L105.3 348Z" fill="#003c8c" stroke="#003c8c"></path><path d="M174.6 0L147.9 0L165.9 10Z" fill="#003e98" stroke="#003e98"></path><path d="M165.9 10L147.9 0L82.6 111Z" fill="#11335b" stroke="#11335b"></path><path d="M792.7 0L744.1 0L784.7 104Z" fill="#1e40af" stroke="#1e40af"></path><path d="M784.7 104L744.1 0L726.4 95Z" fill="#003e98" stroke="#003e98"></path><path d="M83.6 412L123.3 478L179.9 403Z" fill="#083568" stroke="#083568"></path><path d="M634.9 600L614.9 535L600.6 555Z" fill="#083568" stroke="#083568"></path><path d="M554.6 600L634.9 600L600.6 555Z" fill="#003874" stroke="#003874"></path><path d="M51.3 295L153.6 245L104.6 223Z" fill="#17304f" stroke="#17304f"></path><path d="M96.6 383L83.6 412L179.9 403Z" fill="#003a80" stroke="#003a80"></path><path d="M0 203L51.3 295L104.6 223Z" fill="#003e98" stroke="#003e98"></path><path d="M0 381L70.3 414L96.6 383Z" fill="#003e98" stroke="#003e98"></path><path d="M83.6 412L109.3 490L123.3 478Z" fill="#003a80" stroke="#003a80"></path><path d="M77.6 493L109.3 490L83.6 412Z" fill="#17304f" stroke="#17304f"></path><path d="M123.3 478L109.3 490L142.6 499Z" fill="#003a80" stroke="#003a80"></path><path d="M167.9 600L201.1 600L231.9 513Z" fill="#17304f" stroke="#17304f"></path><path d="M733.1 600L765.4 514L751.1 501Z" fill="#083568" stroke="#083568"></path><path d="M751.1 501L765.4 514L766.4 469Z" fill="#083568" stroke="#083568"></path><path d="M878.7 406L805.7 341L771.4 414Z" fill="#1e40af" stroke="#1e40af"></path><path d="M34.3 106L43.3 130L82.6 111Z" fill="#17304f" stroke="#17304f"></path><path d="M82.6 111L43.3 130L104.6 223Z" fill="#1f2937" stroke="#1f2937"></path><path d="M880.7 210L768.4 207L805.7 341Z" fill="#003e98" stroke="#003e98"></path><path d="M880.7 210L860.7 182L768.4 207Z" fill="#003e98" stroke="#003e98"></path><path d="M814.4 152L824.4 58L784.7 104Z" fill="#0e3fa4" stroke="#0e3fa4"></path><path d="M167.9 600L231.9 513L142.6 499Z" fill="#003e98" stroke="#003e98"></path><path d="M845.7 48L824.4 58L900 104Z" fill="#003874" stroke="#003874"></path><path d="M147.9 0L99.3 0L82.6 111Z" fill="#083568" stroke="#083568"></path><path d="M824.4 58L792.7 0L784.7 104Z" fill="#003874" stroke="#003874"></path><path d="M900 290L880.7 210L805.7 341Z" fill="#1f2937" stroke="#1f2937"></path><path d="M900 104L824.4 58L814.4 152Z" fill="#17304f" stroke="#17304f"></path><path d="M99.3 0L34.3 106L82.6 111Z" fill="#1f2937" stroke="#1f2937"></path><path d="M43.3 130L11.3 188L104.6 223Z" fill="#003c8c" stroke="#003c8c"></path><path d="M70.3 414L77.6 493L83.6 412Z" fill="#0e3fa4" stroke="#0e3fa4"></path><path d="M147.6 600L167.9 600L142.6 499Z" fill="#1f2937" stroke="#1f2937"></path><path d="M0 528L77.6 493L70.3 414Z" fill="#11335b" stroke="#11335b"></path><path d="M0 128L11.3 188L43.3 130Z" fill="#003a80" stroke="#003a80"></path><path d="M51.3 295L0 341L105.3 348Z" fill="#17304f" stroke="#17304f"></path><path d="M147.6 600L142.6 499L83.3 588Z" fill="#11335b" stroke="#11335b"></path><path d="M0 128L0 203L11.3 188Z" fill="#0e3fa4" stroke="#0e3fa4"></path><path d="M11.3 188L0 203L104.6 223Z" fill="#003874" stroke="#003874"></path><path d="M878.7 406L771.4 414L766.4 469Z" fill="#1f2937" stroke="#1f2937"></path><path d="M634.9 600L733.1 600L614.9 535Z" fill="#003c8c" stroke="#003c8c"></path><path d="M855.7 511L878.7 406L766.4 469Z" fill="#11335b" stroke="#11335b"></path><path d="M900 120L814.4 152L860.7 182Z" fill="#003a80" stroke="#003a80"></path><path d="M824.4 58L820.4 0L792.7 0Z" fill="#003874" stroke="#003874"></path><path d="M0 203L0 326L51.3 295Z" fill="#11335b" stroke="#11335b"></path><path d="M845.7 48L820.4 0L824.4 58Z" fill="#1c2c43" stroke="#1c2c43"></path><path d="M0 326L0 341L51.3 295Z" fill="#17304f" stroke="#17304f"></path><path d="M733.1 600L741.4 600L765.4 514Z" fill="#003e98" stroke="#003e98"></path><path d="M889.7 322L900 290L805.7 341Z" fill="#083568" stroke="#083568"></path><path d="M880.7 210L900 120L860.7 182Z" fill="#1c2c43" stroke="#1c2c43"></path><path d="M889.7 322L900 296L900 290Z" fill="#11335b" stroke="#11335b"></path><path d="M83.3 588L142.6 499L109.3 490Z" fill="#003874" stroke="#003874"></path><path d="M825.7 536L766.4 469L765.4 514Z" fill="#003874" stroke="#003874"></path><path d="M889.7 322L900 403L900 296Z" fill="#1e40af" stroke="#1e40af"></path><path d="M34.3 106L0 128L43.3 130Z" fill="#17304f" stroke="#17304f"></path><path d="M0 112L0 128L34.3 106Z" fill="#003a80" stroke="#003a80"></path><path d="M0 341L0 381L96.6 383Z" fill="#083568" stroke="#083568"></path><path d="M77.6 493L83.3 588L109.3 490Z" fill="#003c8c" stroke="#003c8c"></path><path d="M0 64L0 112L34.3 106Z" fill="#1e40af" stroke="#1e40af"></path><path d="M741.4 600L825.7 536L765.4 514Z" fill="#0e3fa4" stroke="#0e3fa4"></path><path d="M900 290L900 120L880.7 210Z" fill="#0e3fa4" stroke="#0e3fa4"></path><path d="M845.7 48L900 0L820.4 0Z" fill="#1f2937" stroke="#1f2937"></path><path d="M900 426L900 403L878.7 406Z" fill="#003874" stroke="#003874"></path><path d="M878.7 406L900 403L889.7 322Z" fill="#17304f" stroke="#17304f"></path><path d="M900 120L900 104L814.4 152Z" fill="#17304f" stroke="#17304f"></path><path d="M825.7 536L855.7 511L766.4 469Z" fill="#17304f" stroke="#17304f"></path><path d="M99.3 0L0 64L34.3 106Z" fill="#1f2937" stroke="#1f2937"></path><path d="M900 484L900 426L878.7 406Z" fill="#11335b" stroke="#11335b"></path><path d="M900 104L900 67L845.7 48Z" fill="#003874" stroke="#003874"></path><path d="M0 534L83.3 588L77.6 493Z" fill="#083568" stroke="#083568"></path><path d="M900 528L900 484L855.7 511Z" fill="#083568" stroke="#083568"></path><path d="M855.7 511L900 484L878.7 406Z" fill="#1c2c43" stroke="#1c2c43"></path><path d="M900 528L855.7 511L825.7 536Z" fill="#1c2c43" stroke="#1c2c43"></path><path d="M741.4 600L824.7 600L825.7 536Z" fill="#0e3fa4" stroke="#0e3fa4"></path><path d="M99.3 0L0 0L0 64Z" fill="#1f2937" stroke="#1f2937"></path><path d="M900 67L900 0L845.7 48Z" fill="#1e40af" stroke="#1e40af"></path><path d="M0 381L0 528L70.3 414Z" fill="#003c8c" stroke="#003c8c"></path><path d="M0 528L0 534L77.6 493Z" fill="#003874" stroke="#003874"></path><path d="M900 600L900 528L825.7 536Z" fill="#003874" stroke="#003874"></path><path d="M0 534L22.3 600L83.3 588Z" fill="#11335b" stroke="#11335b"></path><path d="M83.3 588L22.3 600L147.6 600Z" fill="#003a80" stroke="#003a80"></path><path d="M0 534L0 600L22.3 600Z" fill="#003874" stroke="#003874"></path><path d="M824.7 600L900 600L825.7 536Z" fill="#1f2937" stroke="#1f2937"></path></g></svg>